<?xml version="1.0" encoding="utf-8"?>
<!-- Generator: Adobe Illustrator 23.1.1, SVG Export Plug-In . SVG Version: 6.00 Build 0)  -->
<svg version="1.1" id="Layer_1" xmlns="http://www.w3.org/2000/svg" xmlns:xlink="http://www.w3.org/1999/xlink" x="0px" y="0px"
	 viewBox="0 0 15 15" enable-background="new 0 0 15 15" xml:space="preserve">
<g>
	<path fill="#010101" d="M5,3.7h9.5c0.2,0,0.3-0.1,0.3-0.3c0-0.2-0.1-0.3-0.3-0.3H5c-0.2,0-0.3,0.1-0.3,0.3C4.7,3.6,4.9,3.7,5,3.7z"
		/>
	<path fill="#010101" d="M14.5,7H5C4.9,7,4.7,7.1,4.7,7.3S4.9,7.6,5,7.6h9.5c0.2,0,0.3-0.1,0.3-0.3S14.7,7,14.5,7z"/>
	<path fill="#010101" d="M14.5,10.9H5c-0.2,0-0.3,0.1-0.3,0.3c0,0.2,0.1,0.3,0.3,0.3h9.5c0.2,0,0.3-0.1,0.3-0.3
		C14.8,11,14.7,10.9,14.5,10.9z"/>
	<path fill="#010101" d="M2.9,5.8H0.4c-0.2,0-0.3,0.1-0.3,0.3v2.5c0,0.2,0.1,0.3,0.3,0.3h2.5c0.2,0,0.3-0.1,0.3-0.3V6.1
		C3.2,5.9,3,5.8,2.9,5.8z"/>
	<path fill="#010101" d="M0.4,4.8h2.5c0.1,0,0.2,0,0.2-0.1s0-0.2,0-0.3L1.9,2.2c0-0.1-0.1-0.1-0.2-0.1c-0.1,0-0.2,0-0.2,0.1L0.1,4.4
		c0,0.1,0,0.2,0,0.3S0.3,4.8,0.4,4.8z"/>
	<path fill="#010101" d="M1.7,9.5c-0.9,0-1.6,0.7-1.6,1.6c0,0.9,0.7,1.6,1.6,1.6s1.6-0.7,1.6-1.6C3.3,10.2,2.6,9.5,1.7,9.5z"/>
</g>
</svg>
